HIERARCHY
ROOT Torso
{
	OFFSET 0.000000 0.000000 0.000000
	CHANNELS 6 Xposition Yposition Zposition Zrotation Yrotation Xrotation
	JOINT LHip
	{
		OFFSET 0.010000 0.060000 0.000000
		CHANNELS 6 Xposition Yposition Zposition Zrotation Yrotation Xrotation
		JOINT LeftThigh
		{
			OFFSET 0.000000 0.055000 -0.055000
			CHANNELS 6 Xposition Yposition Zposition Zrotation Yrotation Xrotation
			JOINT LeftLeg
			{
				OFFSET -0.015000 0.120000 0.000000
				CHANNELS 6 Xposition Yposition Zposition Zrotation Yrotation Xrotation
				JOINT LeftFoot
				{
					OFFSET 0.010000 0.100000 0.000000
					CHANNELS 6 Xposition Yposition Zposition Zrotation Yrotation Xrotation
					End Site
					{
						OFFSET -0.090000 0.035000 0.000000
					}
				}
			}
		}
	}
	JOINT RHip
	{
		OFFSET 0.010000 0.060000 0.000000
		CHANNELS 6 Xposition Yposition Zposition Zrotation Yrotation Xrotation
		JOINT RightThigh
		{
			OFFSET 0.000000 0.055000 0.055000
			CHANNELS 6 Xposition Yposition Zposition Zrotation Yrotation Xrotation
			JOINT RightLeg
			{
				OFFSET -0.015000 0.120000 0.000000
				CHANNELS 6 Xposition Yposition Zposition Zrotation Yrotation Xrotation
				JOINT RightFoot
				{
					OFFSET 0.010000 0.100000 0.000000
					CHANNELS 6 Xposition Yposition Zposition Zrotation Yrotation Xrotation
					End Site
					{
						OFFSET -0.090000 0.035000 0.000000
					}
				}
			}
		}
	}
	JOINT Neck
	{
		OFFSET 0.000000 -0.040000 -0.000000
		CHANNELS 6 Xposition Yposition Zposition Zrotation Yrotation Xrotation
		JOINT Head
		{
			OFFSET 0.000000 -0.100000 -0.000000
			CHANNELS 6 Xposition Yposition Zposition Zrotation Yrotation Xrotation
			End Site
			{
				OFFSET 0.000000 -0.070000 -0.000000
			}
		}
	}
	JOINT LeftUpperarm
	{
		OFFSET 0.000000 -0.075000 -0.098000
		CHANNELS 6 Xposition Yposition Zposition Zrotation Yrotation Xrotation
		JOINT LeftLowerarm
		{
			OFFSET -0.090000 -0.009000 0.000000
			CHANNELS 6 Xposition Yposition Zposition Zrotation Yrotation Xrotation
			End Site
			{
				OFFSET -0.105000 0.000000 0.000000
			}
		}
	}
	JOINT RightUpperarm
	{
		OFFSET 0.000000 -0.075000 0.098000
		CHANNELS 6 Xposition Yposition Zposition Zrotation Yrotation Xrotation
		JOINT RightLowerarm
		{
			OFFSET -0.090000 -0.009000 0.000000
			CHANNELS 6 Xposition Yposition Zposition Zrotation Yrotation Xrotation
			End Site
			{
				OFFSET -0.105000 0.000000 0.000000
			}
		}
	}
}
MOTION
Frames: 8
Frame Time: 0.041667
0.000000 0.000000 0.000000 -10.127280 0.025650 0.022740 0.010000 0.060000 0.000000 -0.000004 0.000001 -0.000000 0.000002 0.055000 -0.055000 2.420330 -0.002648 0.018247 -0.015000 0.120000 0.000000 10.524757 0.103203 -0.083974 0.010000 0.100000 0.000000 -5.265677 -0.113205 -0.060069 0.010000 0.060000 0.000000 -0.000004 0.000003 0.000000 0.000003 0.054993 0.055000 2.338981 -0.068718 -0.026462 -0.014998 0.119996 0.000009 10.681144 -0.052952 0.000221 0.010000 0.100001 -0.000002 -5.312351 0.069683 0.017895 0.000004 -0.040000 -0.000000 -2.505389 0.036820 0.028545 0.000000 -0.100015 -0.000000 -12.612430 0.064188 0.047055 0.000001 -0.075006 -0.098015 64.456454 -77.880016 50.903515 -0.090000 -0.009002 -0.000000 -0.609654 -19.271853 -2.266032 0.000002 -0.074996 0.098015 124.553718 81.017122 -0.139335 -0.090008 -0.008996 0.000000 4.431728 8.393089 28.503349 
0.000000 0.000000 0.000000 -10.189474 0.048774 0.088262 0.010000 0.060000 0.000000 -0.000002 -0.000001 -0.000000 0.000002 0.055000 -0.055001 2.964727 -0.098805 0.060057 -0.015002 0.120000 0.000001 9.574925 0.378453 -0.267441 0.010000 0.100000 0.000000 -4.848379 -0.314354 -0.225036 0.010000 0.060000 0.000000 0.000001 0.000001 0.000005 0.000006 0.055001 0.055001 2.661747 -0.177239 -0.123790 -0.015000 0.120004 0.000007 10.164495 -0.280356 0.027401 0.010000 0.100000 0.000000 -5.099511 0.287581 0.119049 0.000000 -0.040000 -0.000000 -2.286989 0.211726 -0.119535 0.000002 -0.100000 -0.000000 -12.319939 0.210623 -0.154487 0.000002 -0.075004 -0.098015 64.670854 -77.842430 50.803186 -0.090008 -0.009000 -0.000000 -0.618984 -19.265192 -2.171487 -0.000002 -0.075000 0.097985 124.822827 81.481391 -0.323209 -0.090000 -0.008996 0.000015 4.541781 8.186264 28.601765 
0.000000 0.000000 0.000000 -10.127405 0.044614 0.050138 0.010000 0.060000 0.000000 -0.000001 -0.000002 -0.000003 0.000005 0.054993 -0.055000 2.686697 -0.188634 0.003370 -0.015001 0.120008 0.000001 10.016543 0.085409 -0.085638 0.010000 0.100000 0.000000 -4.936284 0.061614 -0.067714 0.010000 0.060000 0.000000 0.000002 0.000000 0.000002 0.000003 0.055008 0.055000 2.476874 -0.096921 -0.142539 -0.014998 0.120000 0.000008 10.432363 -0.281558 0.111625 0.010002 0.100000 0.000000 -5.292907 0.326162 0.126294 -0.000000 -0.040015 -0.000000 -2.230833 0.295576 -0.762432 -0.000000 -0.100015 -0.000000 -12.164096 0.079066 -1.134698 0.000001 -0.075006 -0.097985 64.355436 -77.912897 51.455814 -0.090000 -0.008996 0.000015 -0.536093 -19.146540 -2.273217 -0.000001 -0.074994 0.098000 123.505830 81.105211 -1.525456 -0.090000 -0.009000 0.000015 4.718485 8.360149 28.397210 
0.000000 0.000000 0.000000 -10.128914 0.041154 0.046336 0.010000 0.060000 0.000000 -0.000004 -0.000001 0.000002 0.000002 0.055000 -0.055000 2.684297 -0.092160 -0.012590 -0.015002 0.120000 0.000000 10.065686 -0.069424 -0.088881 0.010000 0.100000 0.000000 -4.949722 0.102918 -0.035412 0.010000 0.060000 0.000000 -0.000003 0.000001 0.000000 -0.000000 0.055000 0.054999 2.488930 -0.080377 -0.134199 -0.014998 0.120004 0.000009 10.422898 -0.344098 0.100641 0.010000 0.099999 -0.000001 -5.269137 0.253487 0.109312 0.000004 -0.040000 -0.000000 -2.199715 0.241694 -0.720508 -0.000000 -0.100000 -0.000000 -12.184918 0.065850 -1.083086 0.000001 -0.075006 -0.098015 64.486439 -77.883609 51.436068 -0.090000 -0.009001 -0.000015 -0.417745 -19.125686 -2.429687 0.000002 -0.074996 0.098015 124.139043 80.883005 -0.504483 -0.090008 -0.009000 0.000000 4.634663 8.491602 28.331980 
0.000000 0.000000 0.000000 -10.117955 0.022688 0.067822 0.010000 0.060000 0.000000 -0.000003 0.000002 -0.000002 0.000002 0.055000 -0.055000 2.775277 -0.059044 -0.020746 -0.014998 0.119996 0.000000 9.853918 -0.095724 -0.099656 0.010002 0.099999 -0.000001 -4.839917 0.112528 -0.029880 0.010000 0.060000 0.000000 -0.000001 0.000002 0.000000 0.000001 0.055008 0.055000 2.456019 -0.084044 -0.137375 -0.015002 0.120004 0.000007 10.467915 -0.382221 0.071685 0.010000 0.099999 -0.000001 -5.295989 0.407405 0.155928 0.000008 -0.040015 -0.000000 -2.215585 0.296391 -0.935668 -0.000002 -0.100000 -0.000000 -12.249557 -0.005247 -1.346518 0.000001 -0.075006 -0.098015 64.735720 -77.852477 51.128812 -0.090000 -0.009003 0.000015 -0.440674 -19.122631 -2.393406 -0.000002 -0.074996 0.098000 124.228970 80.857200 -0.435853 -0.090008 -0.008992 -0.000015 4.572602 8.453673 28.538098 
0.000000 0.000000 0.000000 -10.051631 -0.001029 0.109989 0.010000 0.060000 0.000000 -0.000001 0.000000 -0.000007 0.000005 0.054993 -0.055001 2.757906 -0.080467 -0.053782 -0.015002 0.120004 0.000000 9.850691 0.008192 -0.094849 0.010000 0.100001 0.000000 -4.936257 0.012840 -0.041028 0.010000 0.060000 0.000000 0.000002 0.000002 0.000002 0.000008 0.054986 0.055000 2.416208 -0.093530 -0.184090 -0.015002 0.120000 0.000009 10.472353 -0.307926 0.078856 0.010002 0.099999 -0.000001 -5.257732 0.237942 0.105095 -0.000004 -0.040000 -0.000000 -2.214672 0.352989 -0.882744 0.000002 -0.100000 -0.000000 -12.282572 0.085059 -1.254679 0.000001 -0.075006 -0.098000 64.997050 -77.780985 50.973145 -0.089992 -0.009002 -0.000000 -0.386308 -19.090710 -2.415994 -0.000000 -0.074996 0.098000 124.322611 80.822769 -0.367373 -0.090000 -0.008996 0.000000 4.583544 8.453540 28.574989 
0.000000 0.000000 0.000000 -10.016314 0.022954 0.129648 0.010000 0.060000 0.000000 -0.000001 0.000001 -0.000002 0.000001 0.055008 -0.055000 2.732976 -0.049725 -0.144121 -0.015000 0.120000 0.000000 9.824601 -0.025863 0.002562 0.010002 0.100000 -0.000001 -4.869202 0.058032 -0.040904 0.010000 0.060000 0.000000 -0.000000 0.000003 0.000000 0.000008 0.054986 0.054999 2.359584 -0.097191 -0.224343 -0.015000 0.120000 0.000007 10.559889 -0.279578 0.123849 0.010000 0.100000 -0.000001 -5.360595 0.211413 0.046619 -0.000004 -0.039985 -0.000000 -2.276337 0.349940 -0.905438 -0.000000 -0.099985 -0.000000 -12.349308 0.084700 -1.199044 0.000001 -0.075006 -0.098000 65.381112 -77.769135 50.594906 -0.090000 -0.008999 0.000015 -0.384793 -19.079874 -2.364462 -0.000001 -0.074994 0.098000 124.152321 80.832297 -0.460048 -0.090008 -0.008996 -0.000015 4.564686 8.481317 28.400915 
0.000000 0.000000 0.000000 -10.005635 -0.003337 0.125763 0.010000 0.060000 0.000000 -0.000002 -0.000003 -0.000005 -0.000001 0.055008 -0.055000 2.772584 0.010653 -0.135874 -0.015002 0.120000 0.000001 9.741609 -0.098941 -0.010970 0.010000 0.100000 -0.000001 -4.854340 0.115100 -0.014883 0.010000 0.060000 0.000000 0.000000 -0.000001 -0.000002 0.000005 0.054993 0.055001 2.353199 -0.054456 -0.208740 -0.015000 0.120000 0.000007 10.579013 -0.379475 0.095001 0.009996 0.100001 -0.000002 -5.360459 0.321080 0.126370 0.000000 -0.039985 -0.000000 -2.034065 0.431276 -1.122598 -0.000000 -0.100000 -0.000000 -11.938297 0.087710 -1.500618 0.000001 -0.075006 -0.098000 65.310078 -77.755686 50.697199 -0.090008 -0.008994 0.000015 -0.328040 -19.073056 -2.464900 0.000000 -0.074998 0.097985 124.304402 80.846210 -0.356851 -0.089992 -0.009000 0.000000 4.571239 8.454722 28.412607 
